#!OML:ASF F:\VICON\USERDATA\INSTALL\rory3\rory3.ASF
:FULLY-SPECIFIED
:DEGREES
1362
root 2.83609 17.6399 7.12177 -176.131 -21.9742 175.742
lowerback 4.99316 0.810018 -2.11433
upperback -0.963939 1.00236 1.97254
thorax -3.87083 0.56189 3.14626
lowerneck -19.2235 -1.52089 -10.4299
upperneck 34.6937 -2.06711 4.18714
head 15.6166 -2.38035 3.02798
rclavicle -2.34069e-014 7.95139e-016
rhumerus -32.8544 -10.9904 -79.031
rradius 45.7068
rwrist 23.1786
rhand -33.5598 3.14506
rfingers 7.12502
rthumb -6.75465 -26.7272
lclavicle -2.34069e-014 7.95139e-016
lhumerus -52.4493 32.875 62.0765
lradius 22.8744
lwrist -14.9542
lhand -8.45131 30.0521
lfingers 7.12502
lthumb 17.4745 59.2867
rfemur -21.1464 3.73615 12.0216
rtibia 38.8163
rfoot -12.9323 7.38206
rtoes 15.1792
lfemur 2.96664 -7.72738 -16.3034
ltibia 22.9978
lfoot -8.76397 -16.428
ltoes -19.6959
1363
root 2.79127 17.6297 7.2105 -175.96 -21.9895 175.629
lowerback 5.03092 0.669853 -2.33996
upperback -0.960869 0.802282 2.03842
thorax -3.87937 0.468238 3.35908
lowerneck -19.204 -1.48304 -10.3765
upperneck 34.6523 -1.96814 4.00979
head 15.5802 -2.35672 2.95901
rclavicle 3.8266e-014 -4.77083e-015
rhumerus -33.1673 -12.3026 -78.0976
rradius 43.8743
rwrist 22.3191
rhand -32.5534 1.50716
rfingers 7.12502
rthumb -5.78301 -28.3939
lclavicle 3.8266e-014 -4.77083e-015
lhumerus -51.838 32.9697 62.8824
lradius 22.9006
lwrist -15.1981
lhand -8.48739 30.1385
lfingers 7.12502
lthumb 17.4398 59.3762
rfemur -21.6354 3.64987 11.599
rtibia 39.0053
rfoot -12.8103 7.35348
rtoes 15.2654
lfemur 3.20236 -7.15822 -16.6431
ltibia 22.0725
lfoot -9.45038 -16.0774
ltoes -19.8435
1364
root 2.74879 17.6237 7.30448 -175.783 -21.9847 175.486
lowerback 5.12382 0.567488 -2.52422
upperback -0.939599 0.652815 2.03523
thorax -3.90072 0.398485 3.47232
lowerneck -19.213 -1.47465 -10.293
upperneck 34.5941 -1.95345 3.93722
head 15.5508 -2.34569 2.91503
rclavicle -6.36608e-014 -2.70347e-014
rhumerus -33.4321 -13.6801 -77.1519
rradius 42.0407
rwrist 21.566
rhand -31.9758 1.23733
rfingers 7.12502
rthumb -5.22535 -28.6782
lclavicle -6.36608e-014 -2.70347e-014
lhumerus -50.9144 32.8651 63.8409
lradius 22.8386
lwrist -15.3082
lhand -8.44462 30.4004
lfingers 7.12502
lthumb 17.481 59.6344
rfemur -22.15 3.56623 11.1549
rtibia 39.1555
rfoot -12.6068 7.20813
rtoes 14.4302
lfemur 3.34685 -6.82571 -17.0332
ltibia 21.2731
lfoot -10.0988 -15.7934
ltoes -18.8607
1365
root 2.70642 17.6159 7.40347 -175.622 -21.9938 175.331
lowerback 5.2797 0.474125 -2.56134
upperback -0.907498 0.520909 1.92517
thorax -3.94397 0.333652 3.38957
lowerneck -19.2505 -1.48592 -10.264
upperneck 34.57 -2.02245 4.06334
head 15.5542 -2.35008 2.95158
rclavicle 3.72224e-014 -1.66979e-014
rhumerus -33.7683 -15.2678 -76.2454
rradius 40.3669
rwrist 20.97
rhand -31.2716 0.620218
rfingers 7.12502
rthumb -4.54536 -29.311
lclavicle 3.72224e-014 -1.66979e-014
lhumerus -49.7084 32.2256 65.1357
lradius 22.8903
lwrist -15.0334
lhand -8.36568 30.3656
lfingers 7.12502
lthumb 17.557 59.5929
rfemur -22.627 3.49881 10.6813
rtibia 39.256
rfoot -12.365 7.00515
rtoes 13.6042
lfemur 3.38143 -6.69119 -17.4656
ltibia 20.6129
lfoot -10.5863 -15.5894
ltoes -17.6098
1366
root 2.66444 17.605 7.50436 -175.513 -21.9706 175.345
lowerback 5.39285 0.350987 -2.53572
upperback -0.831815 0.356027 1.96377
thorax -3.9164 0.24939 3.42952
lowerneck -19.3854 -1.48541 -10.3905
upperneck 34.5251 -1.96888 4.13443
head 15.5617 -2.32682 3.01467
rclavicle -1.26725e-014 -2.70347e-014
rhumerus -34.0742 -16.7119 -75.2263
rradius 38.7546
rwrist 20.7246
rhand -30.5121 -0.621937
rfingers 7.12502
rthumb -3.81201 -30.5676
lclavicle -1.26725e-014 -2.70347e-014
lhumerus -48.651 31.8819 66.3079
lradius 22.9811
lwrist -15.0999
lhand -8.25525 29.8999
lfingers 7.12502
lthumb 17.6632 59.1176
rfemur -23.115 3.51008 10.3638
rtibia 39.3357
rfoot -12.1922 6.85483
rtoes 13.3787
lfemur 3.37141 -6.68422 -17.7519
ltibia 19.9968
lfoot -11.1552 -15.1612
ltoes -17.6994
1367
root 2.62131 17.6022 7.60421 -175.385 -21.9488 175.393
lowerback 5.41911 0.281589 -2.7396
upperback -0.761411 0.252942 2.19652
thorax -3.85297 0.20114 3.79669
lowerneck -19.3744 -1.58532 -10.5917
upperneck 34.4483 -2.02492 4.08453
head 15.5328 -2.37963 3.01613
rclavicle -1.91827e-014 -3.18055e-015
rhumerus -34.3469 -17.9826 -73.869
rradius 37.0386
rwrist 20.4929
rhand -30.0187 -1.49647
rfingers 7.12502
rthumb -3.33548 -31.4501
lclavicle -1.91827e-014 -3.18055e-015
lhumerus -47.6791 31.7338 67.5697
lradius 23.0452
lwrist -15.4738
lhand -8.11678 29.4556
lfingers 7.12502
lthumb 17.7965 58.6613
rfemur -23.6366 3.45769 10.0769
rtibia 39.4042
rfoot -11.9707 6.7451
rtoes 13.2394
lfemur 3.28186 -6.72409 -18.0059
ltibia 19.4895
lfoot -11.8684 -14.6659
ltoes -18.4744
1368
root 2.57817 17.603 7.70024 -175.184 -21.9625 175.22
lowerback 5.41825 0.25383 -2.90735
upperback -0.760252 0.203928 2.0944
thorax -3.84734 0.180514 3.78934
lowerneck -19.0829 -1.71625 -10.3345
upperneck 34.4073 -2.40075 4.10782
head 15.477 -2.50833 2.90854
rclavicle -4.04527e-014 -4.45278e-014
rhumerus -34.8288 -19.6557 -72.6817
rradius 35.2342
rwrist 20.1604
rhand -29.4656 -2.39515
rfingers 7.12502
rthumb -2.80137 -32.3565
lclavicle -4.04527e-014 -4.45278e-014
lhumerus -46.4375 30.6561 68.9506
lradius 23.2273
lwrist -15.2822
lhand -8.12337 29.7937
lfingers 7.12502
lthumb 17.7901 59
rfemur -24.0925 3.35905 9.57167
rtibia 39.4142
rfoot -11.7174 6.6057
rtoes 12.4933
lfemur 3.11845 -6.77234 -18.4556
ltibia 19.0906
lfoot -12.2827 -14.4414
ltoes -18.1335
